<svg xmlns="http://www.w3.org/2000/svg" xmlns:xlink="http://www.w3.org/1999/xlink" version="1.1" x="0px" y="0px" width="100px" height="100px" viewBox="0 0 100 100" enable-background="new 0 0 100 100" xml:space="preserve">
<g id="Captions">
</g>
<g id="Your_Icon">
	<path d="M65.061,51.199V86.07c0,2.372-1.519,4.304-3.384,4.304H38.323c-1.866,0-3.383-1.932-3.383-4.304V51.199   c0-2.373,1.517-4.304,3.383-4.304h23.354C63.542,46.896,65.061,48.826,65.061,51.199z M74.379,93.04   c0.002,0.158-0.024,4.272-5.573,6.829L68.522,100H31.478l-0.283-0.131c-5.55-2.557-5.574-6.671-5.572-6.847   c-0.001-0.319-0.071-39.831,0-46.726c0.066-6.548,7.057-7.728,9.523-9.025V25.288h5.53v-2.204h2.016   c0.42-17.629,2.726-19.015,5.31-20.718V1.024h1.157V0h1.685v1.024h1.138v1.329c2.582,1.689,4.909,3.059,5.33,20.731h2.015v2.204   h5.529l-0.001,11.983c2.469,1.297,9.457,2.477,9.525,9.025C74.447,53.193,74.379,92.703,74.379,93.04z M61.729,37.271h0.943V27   h-0.943V37.271z M59.364,37.271h0.943V27h-0.943V37.271z M56.141,37.271h0.942V27h-0.942V37.271z M52.997,37.271h0.944V27h-0.944   V37.271z M49.77,27v10.271h0.946V27H49.77z M46.542,37.271h0.944V27h-0.944V37.271z M43.317,37.271h0.942V27h-0.942V37.271z    M40.093,37.271h0.942V27h-0.942V37.271z M37.328,37.272h0.943V27h-0.943V37.272z M66.481,51.199c0-3.158-2.155-5.725-4.805-5.725   H38.323c-2.649,0-4.805,2.567-4.805,5.725V86.07c0,3.157,2.155,5.725,4.805,5.725h23.354c2.649,0,4.805-2.567,4.805-5.725V51.199z"/>
</g>
</svg>